#!OML:ASF \\sashay\E\basketball\basketball\Project 1\Capture day 1\Session 1\Subject.ASF
:FULLY-SPECIFIED
:DEGREES
276
root -34.0207 14.8235 0.0697366 -179.589 57.8137 170.808
lowerback 15.181 4.94646 -7.63599
upperback 7.96601 6.29952 -3.50078
thorax -0.32305 3.34885 -0.383002
lowerneck 12.5582 -21.0725 -15.5914
upperneck -34.5386 -23.3518 38.6384
head -4.5394 -13.8253 16.5293
rclavicle 2.127e-014 -1.66979e-014
rhumerus -15.8418 50.4693 -103.841
rradius 81.6451
rwrist -8.33079
rhand -23.772 28.3005
rfingers 7.12502
rthumb 2.69751 -1.66221
lclavicle 2.127e-014 -1.66979e-014
lhumerus -24.9955 -18.5262 92.7203
lradius 105.88
lwrist 30.1551
lhand -35.8639 45.9396
lfingers 7.12502
lthumb -8.97846 75.7286
rfemur -20.7782 -16.184 19.8073
rtibia 73.6142
rfoot -10.3789 -12.7263
rtoes -20.1405
lfemur -31.5895 0.372186 -24.4336
ltibia 56.2187
lfoot -25.9175 -9.24397
ltoes -16.4838
277
root -33.983 14.7897 0.0983342 -180.008 57.7801 170.369
lowerback 15.2123 4.94144 -8.05663
upperback 7.92836 6.23743 -3.60864
thorax -0.39795 3.31388 -0.262521
lowerneck 12.6162 -21.1446 -15.5469
upperneck -35.162 -23.3264 38.5973
head -4.75717 -13.7946 16.6205
rclavicle -6.4605e-015 -1.76918e-014
rhumerus -17.2999 50.977 -104.909
rradius 81.1119
rwrist -10.5422
rhand -23.5938 28.4472
rfingers 7.12502
rthumb 2.86969 -1.51328
lclavicle -6.4605e-015 -1.76918e-014
lhumerus -25.8308 -18.7797 92.984
lradius 104.786
lwrist 31.2838
lhand -36.7962 46.0773
lfingers 7.12502
lthumb -9.87805 75.8255
rfemur -20.8589 -16.1971 19.7519
rtibia 74.0379
rfoot -10.8282 -12.9213
rtoes -20.3901
lfemur -31.4071 0.386999 -24.3999
ltibia 56.4632
lfoot -26.05 -10.1143
ltoes -13.1797
278
root -33.9392 14.7634 0.130243 -180.176 57.9411 170.249
lowerback 15.2106 5.04531 -8.38475
upperback 7.92916 6.33774 -3.67769
thorax -0.419316 3.35969 -0.174373
lowerneck 12.6445 -21.2017 -15.5007
upperneck -35.7806 -23.2586 38.6193
head -4.96805 -13.7453 16.7405
rclavicle -2.66371e-014 4.73108e-014
rhumerus -18.2087 50.6939 -105.581
rradius 80.2908
rwrist -10.269
rhand -23.7021 28.2859
rfingers 7.12502
rthumb 2.7651 -1.67588
lclavicle -2.66371e-014 4.73108e-014
lhumerus -26.6606 -19.1601 93.1418
lradius 103.826
lwrist 32.3765
lhand -36.52 45.5019
lfingers 7.12502
lthumb -9.61154 75.2627
rfemur -20.9037 -16.0664 19.9534
rtibia 74.3982
rfoot -11.4529 -13.0842
rtoes -19.4859
lfemur -31.2791 0.646108 -24.1869
ltibia 56.669
lfoot -26.2384 -10.573
ltoes -12.0047
279
root -33.895 14.7456 0.159431 -180.015 58.1738 170.281
lowerback 15.1004 5.17875 -8.49701
upperback 7.84125 6.49977 -3.83616
thorax -0.455198 3.4417 -0.302061
lowerneck 12.5681 -21.3371 -15.3201
upperneck -36.3952 -23.2451 38.6552
head -5.16478 -13.7263 16.8182
rclavicle 1.41733e-013 -7.39479e-014
rhumerus -19.1704 50.2952 -106.368
rradius 79.5141
rwrist -10.3504
rhand -23.785 28.3459
rfingers 7.12502
rthumb 2.68502 -1.61697
lclavicle 1.41733e-013 -7.39479e-014
lhumerus -27.6037 -19.8014 93.2132
lradius 103.065
lwrist 33.5612
lhand -37.9437 45.7356
lfingers 7.12502
lthumb -10.985 75.4281
rfemur -21.1762 -16.0323 20.3087
rtibia 74.7086
rfoot -12.0331 -13.0728
rtoes -17.3878
lfemur -31.4497 1.01836 -23.9518
ltibia 56.8257
lfoot -26.399 -10.6192
ltoes -12.8956
280
root -33.8512 14.7296 0.188436 -180.575 58.2821 169.862
lowerback 15.3619 5.2295 -8.84493
upperback 7.8505 6.51032 -4.02915
thorax -0.586219 3.45525 -0.343751
lowerneck 12.1849 -21.6348 -15.083
upperneck -36.725 -23.4954 38.6545
head -5.16561 -13.8284 16.6992
rclavicle 1.37161e-014 3.06128e-014
rhumerus -20.0562 50.228 -107.178
rradius 78.7999
rwrist -10.4597
rhand -23.541 28.0927
rfingers 7.12502
rthumb 2.92064 -1.86703
lclavicle 1.37161e-014 3.06128e-014
lhumerus -28.2339 -20.1435 93.3552
lradius 102.171
lwrist 34.7551
lhand -41.2264 47.5931
lfingers 7.12502
lthumb -14.1498 77.0912
rfemur -20.9732 -16.148 20.2057
rtibia 74.9592
rfoot -12.5964 -12.7558
rtoes -15.2447
lfemur -31.1498 1.39078 -23.9768
ltibia 56.9324
lfoot -26.5547 -10.874
ltoes -12.9182
281
root -33.8056 14.7158 0.219679 -181.184 58.3181 169.395
lowerback 15.6179 5.23042 -9.26606
upperback 7.83769 6.43799 -4.18113
thorax -0.744114 3.42455 -0.289822
lowerneck 12.0288 -21.8046 -15.0103
upperneck -37.3277 -23.5776 38.6328
head -5.31421 -13.8328 16.7251
rclavicle 2.88238e-014 -9.89948e-014
rhumerus -21.0524 50.3417 -108.082
rradius 78.1656
rwrist -10.6729
rhand -22.5161 27.2811
rfingers 7.12502
rthumb 3.91037 -2.66272
lclavicle 2.88238e-014 -9.89948e-014
lhumerus -28.9718 -20.3875 93.4734
lradius 101.526
lwrist 36.5479
lhand -44.0352 48.917
lfingers 7.12502
lthumb -16.8551 78.2055
rfemur -20.7717 -16.3049 20.0543
rtibia 75.2153
rfoot -12.3896 -12.7732
rtoes -16.9492
lfemur -30.8342 1.67891 -24.0001
ltibia 57.0409
lfoot -26.693 -11.3886
ltoes -11.8624
282
root -33.7634 14.6978 0.250244 -181.332 58.2787 169.288
lowerback 15.7364 5.23601 -9.37434
upperback 7.91669 6.44695 -4.33979
thorax -0.708453 3.43831 -0.405998
lowerneck 11.5822 -21.9958 -14.9832
upperneck -37.9592 -23.5842 38.8688
head -5.37523 -13.7985 16.8065
rclavicle -6.30147e-014 -3.97569e-015
rhumerus -21.4885 50.0728 -108.419
rradius 77.642
rwrist -10.5388
rhand -22.4355 26.84
rfingers 7.12502
rthumb 3.9882 -3.10244
lclavicle -6.30147e-014 -3.97569e-015
lhumerus -29.6458 -21.1313 93.3738
lradius 101.318
lwrist 39.0653
lhand -45.979 48.9584
lfingers 7.12502
lthumb -18.7255 78.0771
rfemur -20.8091 -16.4939 20.136
rtibia 75.5165
rfoot -11.884 -12.8143
rtoes -18.6921
lfemur -30.7587 1.78097 -23.8362
ltibia 57.1771
lfoot -26.9321 -11.5436
ltoes -12.671
283
root -33.7239 14.6743 0.279909 -181.32 58.0834 169.302
lowerback 15.8288 5.17857 -9.35187
upperback 8.00945 6.39791 -4.50444
thorax -0.629555 3.42621 -0.584592
lowerneck 11.0058 -22.1855 -15.0431
upperneck -38.5102 -23.5759 39.2166
head -5.35189 -13.7509 16.8961
rclavicle 1.45908e-013 -1.28812e-013
rhumerus -21.7373 49.6655 -108.629
rradius 77.0254
rwrist -10.4433
rhand -22.2325 26.9441
rfingers 7.12502
rthumb 4.18428 -2.99457
lclavicle 1.45908e-013 -1.28812e-013
lhumerus -30.2015 -21.9577 93.3519
lradius 101.086
lwrist 41.1962
lhand -49.5129 50.914
lfingers 7.12502
lthumb -22.1215 79.6685
rfemur -20.9691 -17.0016 20.2807
rtibia 75.886
rfoot -11.6457 -12.7614
rtoes -19.1664
lfemur -30.797 1.62202 -23.6366
ltibia 57.3545
lfoot -27.1825 -11.3957
ltoes -13.9841
284
root -33.6768 14.6557 0.313613 -181.674 58.0386 168.9
lowerback 15.9431 5.224 -9.67952
upperback 7.96362 6.40902 -4.73114
thorax -0.735877 3.44025 -0.663216
lowerneck 10.6669 -22.4383 -14.7593
upperneck -39.14 -23.6465 39.2871
head -5.49823 -13.7603 16.9066
rclavicle -1.70955e-014 -1.43125e-014
rhumerus -22.3302 49.2197 -109.216
rradius 76.3996
rwrist -10.5902
rhand -21.8362 26.8299
rfingers 7.12502
rthumb 4.56693 -3.10082
lclavicle -1.70955e-014 -1.43125e-014
lhumerus -30.553 -22.4934 93.4219
lradius 100.287
lwrist 42.2139
lhand -52.2899 53.8513
lfingers 7.12502
lthumb -24.7853 82.2652
rfemur -21.1123 -17.5067 20.181
rtibia 76.2705
rfoot -11.7163 -12.5514
rtoes -18.6265
lfemur -30.7447 1.5807 -23.6345
ltibia 57.5045
lfoot -27.3735 -11.2834
ltoes -14.7507
285
root -33.6248 14.6404 0.346674 -182.091 58.1017 168.236
lowerback 15.8422 5.27206 -10.235
upperback 7.81438 6.39423 -4.9512
thorax -0.860359 3.43101 -0.593792
lowerneck 10.4554 -22.711 -14.458
upperneck -39.763 -23.8154 39.1816
head -5.6843 -13.8108 16.8579
rclavicle 3.49861e-014 -3.06128e-014
rhumerus -23.1874 48.835 -109.946
rradius 75.9175
rwrist -10.4455
rhand -21.1762 26.4651
rfingers 7.12502
rthumb 5.20425 -3.45102
lclavicle 3.49861e-014 -3.06128e-014
lhumerus -30.9005 -22.8842 93.7245
lradius 99.2338
lwrist 42.6021
lhand -50.5031 50.5211
lfingers 7.12502
lthumb -23.0719 79.1599
rfemur -21.3744 -17.9021 19.9631
rtibia 76.6191
rfoot -11.7534 -12.2962
rtoes -18.3216
lfemur -30.8069 1.63683 -23.7814
ltibia 57.6072
lfoot -27.6712 -10.9617
ltoes -17.0413
